<svg width="99" height="40" viewBox="0 0 99 40" fill="none" xmlns="http://www.w3.org/2000/svg">
<path fill-rule="evenodd" clip-rule="evenodd" d="M67.7265 25.8514C66.9614 25.0704 65.99 24.6789 64.8135 24.6789C63.637 24.6789 62.6657 25.0704 61.9005 25.8514C61.1354 26.6334 60.7528 27.6444 60.7528 28.8844C60.7528 30.1243 61.1354 31.1363 61.9005 31.9173C62.6667 32.6993 63.637 33.0898 64.8135 33.0898C65.99 33.0898 66.9604 32.6993 67.7265 31.9173C68.4927 31.1363 68.8743 30.1253 68.8743 28.8844C68.8743 27.6434 68.4927 26.6334 67.7265 25.8514ZM0 40.0002V22.4567H2.70684V23.6223C3.8764 22.7164 5.27492 22.2635 6.90239 22.2635C8.83614 22.2635 10.4468 22.9047 11.7363 24.1843C13.0248 25.4649 13.67 27.0319 13.67 28.8844C13.67 30.7368 13.0248 32.3038 11.7363 33.5844C10.4468 34.865 8.83514 35.5053 6.90239 35.5053C5.27591 35.5053 3.87739 35.0523 2.70684 34.1464V39.9992H0V40.0002ZM9.8144 25.8514C9.04923 25.0704 8.07889 24.6789 6.90239 24.6789C5.7259 24.6789 4.75556 25.0704 3.98939 25.8514C3.22422 26.6334 2.84065 27.6444 2.84065 28.8844C2.84065 30.1243 3.22323 31.1363 3.98939 31.9173C4.75456 32.6993 5.7249 33.0898 6.90239 33.0898C8.07989 33.0898 9.04923 32.6993 9.8144 31.9173C10.5796 31.1363 10.9632 30.1253 10.9632 28.8844C10.9632 27.6434 10.5796 26.6334 9.8144 25.8514ZM69.6484 33.5854C68.3589 34.866 66.7473 35.5063 64.8145 35.5063C62.8818 35.5063 61.2692 34.866 59.9797 33.5854C58.6902 32.3038 58.0459 30.7378 58.0459 28.8854C58.0459 27.0329 58.6902 25.4659 59.9797 24.1853C61.2692 22.9047 62.8798 22.2644 64.8145 22.2644C66.7493 22.2644 68.3589 22.9057 69.6484 24.1853C70.9379 25.4659 71.5821 27.0329 71.5821 28.8854C71.5821 30.7378 70.9379 32.3048 69.6484 33.5854ZM56.5483 35.313H53.8415V22.4577H56.5483V35.313ZM56.4274 19.8956C56.0894 20.2336 55.685 20.4031 55.2192 20.4031C54.7533 20.4031 54.3479 20.2336 54.01 19.8956C53.672 19.5566 53.5025 19.1542 53.5025 18.6874C53.5025 18.2205 53.672 17.8171 54.01 17.4792C54.3479 17.1412 54.7503 16.9717 55.2192 16.9717C55.688 16.9717 56.0894 17.1412 56.4274 17.4792C56.7654 17.8181 56.9348 18.2205 56.9348 18.6874C56.9348 19.1542 56.7654 19.5576 56.4274 19.8956ZM49.1275 32.618C49.4487 32.9808 49.9016 33.1622 50.4814 33.1622C51.0613 33.1622 51.6173 32.8807 52.1496 32.3167L53.2606 34.2247C52.3091 35.0791 51.2575 35.5053 50.1058 35.5053C48.9541 35.5053 47.9709 35.1068 47.1571 34.3099C46.3434 33.5121 45.936 32.4376 45.936 31.0837V24.6323H44.3165V22.4577H45.936V18.4217H48.6429V22.4577H52.0266V24.6323H48.6429V31.1571C48.6429 31.7696 48.8034 32.2563 49.1265 32.618M42.9635 35.313H40.2557V22.4577H42.9635V35.313ZM42.8426 19.8956C42.5046 20.2336 42.1012 20.4031 41.6344 20.4031C41.1676 20.4031 40.7642 20.2336 40.4262 19.8956C40.0872 19.5566 39.9187 19.1542 39.9187 18.6874C39.9187 18.2205 40.0872 17.8171 40.4262 17.4792C40.7652 17.1412 41.1676 16.9717 41.6344 16.9717C42.1012 16.9717 42.5056 17.1412 42.8426 17.4792C43.1816 17.8181 43.3501 18.2205 43.3501 18.6874C43.3501 19.1542 43.1806 19.5576 42.8426 19.8956ZM33.9966 24.5352C33.3523 24.5352 32.828 24.6521 32.4246 24.886C32.0222 25.119 31.821 25.4698 31.821 25.9377C31.821 26.3559 32.0301 26.6622 32.4494 26.8555C32.7398 27.0002 33.1462 27.1379 33.6705 27.2658C34.1938 27.3956 34.6567 27.5245 35.0611 27.6533C35.4635 27.7822 35.854 27.9269 36.2326 28.0885C36.6112 28.25 37.0186 28.475 37.4537 28.7644C38.324 29.3443 38.7581 30.2472 38.7581 31.4703C38.7581 32.6934 38.315 33.6736 37.4289 34.4071C36.5429 35.1395 35.406 35.5063 34.0214 35.5063C33.0867 35.5063 32.1154 35.3378 31.1084 34.9988C30.1003 34.6598 29.2103 34.1851 28.4372 33.5735L29.7425 31.4713C31.2412 32.5992 32.6912 33.1632 34.0927 33.1632C34.7052 33.1632 35.1889 33.0224 35.5438 32.7399C35.8976 32.4585 36.075 32.0997 36.075 31.6655C36.075 31.0213 35.2206 30.4415 33.5129 29.9261C33.383 29.8775 33.2869 29.8458 33.2225 29.8299C30.5474 29.1054 29.2103 27.8962 29.2103 26.2053C29.2103 25.0129 29.6732 24.0584 30.5999 23.3418C31.5266 22.6252 32.7309 22.2664 34.2136 22.2664C35.6964 22.2664 37.0979 22.7015 38.4201 23.5718L37.4042 25.5769C36.3565 24.8841 35.2206 24.5381 33.9966 24.5381M24.2426 25.8514C23.4775 25.0704 22.5061 24.6789 21.3296 24.6789C20.1531 24.6789 19.1818 25.0704 18.4166 25.8514C17.6515 26.6334 17.2689 27.6444 17.2689 28.8844C17.2689 30.1243 17.6515 31.1363 18.4166 31.9173C19.1818 32.6993 20.1531 33.0898 21.3296 33.0898C22.5061 33.0898 23.4765 32.6993 24.2426 31.9173C25.0078 31.1363 25.3914 30.1253 25.3914 28.8844C25.3914 27.6434 25.0078 26.6334 24.2426 25.8514ZM26.1645 33.5854C24.876 34.866 23.2644 35.5063 21.3306 35.5063C19.3969 35.5063 17.7853 34.866 16.4968 33.5854C15.2073 32.3038 14.563 30.7378 14.563 28.8854C14.563 27.0329 15.2073 25.4659 16.4968 24.1853C17.7853 22.9047 19.3979 22.2644 21.3306 22.2644C23.2634 22.2644 24.876 22.9057 26.1645 24.1853C27.454 25.4659 28.0982 27.0329 28.0982 28.8854C28.0982 30.7378 27.453 32.3048 26.1645 33.5854Z" fill="#245E98"/>
<path fill-rule="evenodd" clip-rule="evenodd" d="M76.5298 25.3336C77.2473 24.6914 78.0908 24.3702 79.0592 24.3702C81.096 24.3702 82.1139 25.5973 82.1139 28.0514V35.3631H84.9179V27.2C84.9179 25.4635 84.454 24.1363 83.5283 23.2175C82.6016 22.2997 81.3874 21.8408 79.8858 21.8408C78.967 21.8408 78.1116 22.0747 77.3197 22.5416C76.5268 23.0094 75.9053 23.6517 75.4553 24.4704V22.041H72.6514V35.3631H75.4553V28.1505C75.4553 26.9155 75.8131 25.9759 76.5307 25.3336H76.5298Z" fill="#245E98"/>
<path fill-rule="evenodd" clip-rule="evenodd" d="M78.0457 0C81.4841 0 84.2712 2.7901 84.2712 6.23337C84.2712 9.67664 81.4841 12.4667 78.0457 12.4667C74.6074 12.4667 71.8203 9.67664 71.8203 6.23337C71.8203 2.7901 74.6084 0 78.0457 0Z" fill="#F0B816"/>
<path fill-rule="evenodd" clip-rule="evenodd" d="M65.2189 2.75098C67.7523 2.75098 69.805 4.81159 69.805 7.3529C69.805 9.89422 67.7513 11.9548 65.2189 11.9548C62.6865 11.9548 60.6328 9.89521 60.6328 7.3529C60.6328 4.81059 62.6865 2.75098 65.2189 2.75098Z" fill="#245E98"/>
<path fill-rule="evenodd" clip-rule="evenodd" d="M58.1592 10.2256C59.6241 10.2256 60.8125 11.414 60.8125 12.8799C60.8125 14.3458 59.6241 15.5332 58.1592 15.5332C56.6943 15.5332 55.5049 14.3448 55.5049 12.8799C55.5049 11.415 56.6933 10.2256 58.1592 10.2256Z" fill="#1DA64B"/>
<path fill-rule="evenodd" clip-rule="evenodd" d="M93.8792 18.6117H89.8561L91.9366 16.4907C92.5719 15.8395 93.008 15.3052 93.2439 14.8909C93.4808 14.4766 93.5997 14.0405 93.5997 13.5836C93.5997 12.7709 93.3202 12.1296 92.7622 11.6598C92.2032 11.19 91.554 10.9551 90.8136 10.9551C90.0732 10.9551 89.4676 11.1027 88.9988 11.4001C88.529 11.6965 88.0998 12.1365 87.7103 12.7203L88.9165 13.4181C89.3982 12.6737 90.0038 12.3011 90.7323 12.3011C91.1456 12.3011 91.4895 12.4259 91.7601 12.6757C92.0307 12.9255 92.1655 13.2278 92.1655 13.5836C92.1655 13.9394 92.0386 14.2903 91.7849 14.6372C91.5312 14.9841 91.104 15.4628 90.5033 16.0714L87.8124 18.7763V20.0449H93.8792V18.6107V18.6117ZM90.7075 24.1354C86.2563 24.1354 82.6475 20.5167 82.6475 16.0536C82.6475 11.5904 86.2563 7.9707 90.7075 7.9707C95.1588 7.9707 98.7676 11.5894 98.7676 16.0536C98.7676 20.5177 95.1598 24.1354 90.7075 24.1354Z" fill="#D3342E"/>
</svg>

