<svg width="20" height="20" viewBox="0 0 20 20" fill="none" xmlns="http://www.w3.org/2000/svg">
<path fill-rule="evenodd" clip-rule="evenodd" d="M10 0C15.5229 0 20 4.47725 20 10C20 15.5227 15.5227 20 10 20C4.47725 20 0 15.5229 0 10C0 4.47705 4.47725 0 10 0Z" fill="#D3342E"/>
<mask id="mask0_3674_2213" style="mask-type:luminance" maskUnits="userSpaceOnUse" x="0" y="0" width="20" height="20">
<path d="M10 0C15.5229 0 20 4.47725 20 10C20 15.5227 15.5227 20 10 20C4.47725 20 0 15.5229 0 10C0 4.47705 4.47725 0 10 0Z" fill="white"/>
</mask>
<g mask="url(#mask0_3674_2213)">
<path fill-rule="evenodd" clip-rule="evenodd" d="M2.99097 18.5282V7.05529H4.76121V7.81754C5.52647 7.22519 6.44078 6.92871 7.50473 6.92871C8.76927 6.92871 9.82299 7.34775 10.6663 8.18523C11.5092 9.02271 11.9308 10.0473 11.9308 11.2587C11.9308 12.4701 11.5092 13.4947 10.6663 14.3328C9.82299 15.1703 8.76927 15.5887 7.50473 15.5887C6.44078 15.5887 5.52647 15.2927 4.76121 14.7003V18.5282H2.99097ZM9.40916 9.27526C8.90848 8.76475 8.274 8.50879 7.50473 8.50879C6.73545 8.50879 6.10057 8.76455 5.59989 9.27526C5.09921 9.78657 4.84867 10.4475 4.84867 11.2587C4.84867 12.0699 5.09921 12.7315 5.59989 13.242C6.10057 13.7531 6.73505 14.0085 7.50473 14.0085C8.27441 14.0085 8.90848 13.7531 9.40916 13.242C9.90985 12.7315 10.1604 12.0703 10.1604 11.2587C10.1604 10.4471 9.90985 9.78657 9.40916 9.27526Z" fill="white"/>
<path d="M13.4429 6.33924C13.7511 6.02611 13.9709 5.77637 14.1027 5.59002C14.2345 5.40367 14.3003 5.22353 14.3003 5.04962C14.3003 4.8757 14.2431 4.73027 14.1288 4.61353C14.0144 4.49678 13.8678 4.43841 13.6889 4.43841C13.3609 4.43841 13.0502 4.6721 12.7569 5.13928L11.825 4.58745C12.0685 4.20973 12.3357 3.92389 12.6265 3.73011C12.9172 3.53634 13.2875 3.43945 13.7374 3.43945C14.1873 3.43945 14.5823 3.58228 14.9227 3.86812C15.2631 4.15397 15.4334 4.54272 15.4334 5.03478C15.4334 5.30317 15.365 5.56033 15.2284 5.80646C15.0918 6.05239 14.8395 6.36672 14.4718 6.74945L13.5324 7.72614H15.5899V8.76983H11.9146V7.90507L13.4429 6.33944V6.33924Z" fill="white"/>
</g>
</svg>

